<svg width="48" height="13" viewBox="0 0 48 13" fill="none" xmlns="http://www.w3.org/2000/svg">
<path d="M5.20256 12.192C3.42123 12.192 1.9919 11.536 0.914563 10.224L2.29056 8.944C3.12256 9.92533 4.1039 10.416 5.23456 10.416C5.7999 10.416 6.2639 10.2613 6.62656 9.952C6.98923 9.632 7.17056 9.21067 7.17056 8.688C7.17056 8.144 6.9359 7.72267 6.46656 7.424C6.0079 7.11467 5.3839 6.96 4.59456 6.96H3.68256L3.36256 5.728L6.38656 2.512H1.53856V0.799999H8.94656V2.272L5.82656 5.472C6.8079 5.61067 7.60256 5.94133 8.21056 6.464C8.81856 6.976 9.12256 7.70667 9.12256 8.656C9.12256 9.69067 8.75456 10.5387 8.01856 11.2C7.29323 11.8613 6.35456 12.192 5.20256 12.192ZM11.4694 12L16.4934 2.528H10.8614V0.799999H18.7334V2.288L13.6774 12H11.4694ZM24.9869 12.192C23.5363 12.192 22.3629 11.6427 21.4669 10.544C20.5709 9.43467 20.1229 8.05333 20.1229 6.4C20.1229 4.768 20.5763 3.39733 21.4829 2.288C22.4003 1.168 23.5789 0.608 25.0189 0.608C26.4589 0.608 27.6269 1.16267 28.5229 2.272C29.4296 3.38133 29.8829 4.75733 29.8829 6.4C29.8829 8.032 29.4243 9.408 28.5069 10.528C27.6003 11.6373 26.4269 12.192 24.9869 12.192ZM22.9389 9.264C23.4723 10.032 24.1656 10.416 25.0189 10.416C25.8723 10.416 26.5549 10.0373 27.0669 9.28C27.5896 8.512 27.8509 7.552 27.8509 6.4C27.8509 5.26933 27.5843 4.32 27.0509 3.552C26.5176 2.77333 25.8296 2.384 24.9869 2.384C24.1336 2.384 23.4456 2.768 22.9229 3.536C22.4109 4.29333 22.1549 5.248 22.1549 6.4C22.1549 7.53067 22.4163 8.48533 22.9389 9.264ZM39.7459 8.304V9.216H43.2659V10.336H39.7459V12H37.6659V10.336H36.0659V9.216H37.6659V0.799999H42.2739C43.7673 0.799999 44.9299 1.12 45.7619 1.76C46.6046 2.4 47.0259 3.33333 47.0259 4.56C47.0259 5.776 46.6046 6.704 45.7619 7.344C44.9299 7.984 43.7673 8.304 42.2739 8.304H39.7459ZM44.9299 4.576C44.9299 3.92533 44.7006 3.42933 44.2419 3.088C43.7833 2.736 43.1219 2.56 42.2579 2.56H39.7459V6.624H42.2579C43.1113 6.624 43.7673 6.448 44.2259 6.096C44.6953 5.73333 44.9299 5.22667 44.9299 4.576Z" fill="black"/>
</svg>
