<svg width="49" height="13" viewBox="0 0 49 13" fill="none" xmlns="http://www.w3.org/2000/svg">
<path d="M6.42013 12V9.488H0.772125L0.404125 8.08L6.62813 0.719999H8.30813V7.872H9.90813V9.488H8.30813V12H6.42013ZM2.74013 7.872H6.42013V3.44L2.74013 7.872ZM15.6948 12.192C13.9134 12.192 12.4841 11.536 11.4068 10.224L12.7828 8.944C13.6148 9.92533 14.5961 10.416 15.7268 10.416C16.2921 10.416 16.7561 10.2613 17.1188 9.952C17.4814 9.632 17.6628 9.21067 17.6628 8.688C17.6628 8.144 17.4281 7.72267 16.9588 7.424C16.5001 7.11467 15.8761 6.96 15.0868 6.96H14.1748L13.8548 5.728L16.8788 2.512H12.0308V0.799999H19.4388V2.272L16.3188 5.472C17.3001 5.61067 18.0948 5.94133 18.7028 6.464C19.3108 6.976 19.6148 7.70667 19.6148 8.656C19.6148 9.69067 19.2468 10.5387 18.5108 11.2C17.7854 11.8613 16.8468 12.192 15.6948 12.192ZM26.3854 12.192C24.9347 12.192 23.7614 11.6427 22.8654 10.544C21.9694 9.43467 21.5214 8.05333 21.5214 6.4C21.5214 4.768 21.9747 3.39733 22.8814 2.288C23.7987 1.168 24.9774 0.608 26.4174 0.608C27.8574 0.608 29.0254 1.16267 29.9214 2.272C30.828 3.38133 31.2814 4.75733 31.2814 6.4C31.2814 8.032 30.8227 9.408 29.9054 10.528C28.9987 11.6373 27.8254 12.192 26.3854 12.192ZM24.3374 9.264C24.8707 10.032 25.564 10.416 26.4174 10.416C27.2707 10.416 27.9534 10.0373 28.4654 9.28C28.988 8.512 29.2494 7.552 29.2494 6.4C29.2494 5.26933 28.9827 4.32 28.4494 3.552C27.916 2.77333 27.228 2.384 26.3854 2.384C25.532 2.384 24.844 2.768 24.3214 3.536C23.8094 4.29333 23.5534 5.248 23.5534 6.4C23.5534 7.53067 23.8147 8.48533 24.3374 9.264ZM41.1444 8.304V9.216H44.6644V10.336H41.1444V12H39.0644V10.336H37.4644V9.216H39.0644V0.799999H43.6724C45.1657 0.799999 46.3284 1.12 47.1604 1.76C48.003 2.4 48.4244 3.33333 48.4244 4.56C48.4244 5.776 48.003 6.704 47.1604 7.344C46.3284 7.984 45.1657 8.304 43.6724 8.304H41.1444ZM46.3284 4.576C46.3284 3.92533 46.099 3.42933 45.6404 3.088C45.1817 2.736 44.5204 2.56 43.6564 2.56H41.1444V6.624H43.6564C44.5097 6.624 45.1657 6.448 45.6244 6.096C46.0937 5.73333 46.3284 5.22667 46.3284 4.576Z" fill="black"/>
</svg>
