<svg width="37" height="20" viewBox="0 0 37 20" fill="none" xmlns="http://www.w3.org/2000/svg">
<path d="M30.9132 1H6.13846C3.32861 1 1.05078 3.23352 1.05078 5.9887V13.7971C1.05078 16.5523 3.32861 18.7858 6.13846 18.7858H30.9132C33.7231 18.7858 36.0009 16.5523 36.0009 13.7971V5.9887C36.0009 3.23352 33.7231 1 30.9132 1Z" stroke="white"/>
<path d="M9.89286 13.8452C8.8365 13.8452 7.88654 13.4413 7.04297 12.6333L7.63574 12.011C8.38812 12.7097 9.14429 13.0591 9.90426 13.0591C10.4742 13.0591 10.9378 12.899 11.295 12.5787C11.6522 12.2584 11.8307 11.8472 11.8307 11.345C11.8307 10.8718 11.6446 10.4861 11.2722 10.1876C10.9074 9.88919 10.4324 9.73997 9.84726 9.73997C9.30008 9.73997 8.7415 9.88555 8.17152 10.1767L7.56735 9.79456L7.79534 6.07145H12.3893V6.86848H8.58191L8.41092 9.31416C8.9505 9.08852 9.47488 8.9757 9.98405 8.9757C10.782 8.9757 11.4394 9.19042 11.9561 9.61987C12.4805 10.042 12.7427 10.6134 12.7427 11.334C12.7427 12.0765 12.4768 12.6807 11.9447 13.1465C11.4128 13.6123 10.7288 13.8452 9.89286 13.8452ZM19.9279 12.6988C19.3048 13.4631 18.4916 13.8452 17.4884 13.8452C16.4853 13.8452 15.6721 13.4668 15.0489 12.7097C14.4333 11.9455 14.1256 11.0065 14.1256 9.89283C14.1256 8.79373 14.4372 7.86204 15.0603 7.09776C15.6911 6.32621 16.5081 5.94043 17.5112 5.94043C18.5144 5.94043 19.3237 6.32257 19.9393 7.08684C20.5549 7.84384 20.8627 8.77917 20.8627 9.89283C20.8627 10.9919 20.5511 11.9273 19.9279 12.6988ZM15.7443 12.1311C16.2003 12.7497 16.7892 13.0591 17.5112 13.0591C18.2332 13.0591 18.8146 12.7534 19.2554 12.142C19.7038 11.5233 19.9279 10.7736 19.9279 9.89283C19.9279 9.02665 19.6999 8.28421 19.2439 7.66551C18.7955 7.03953 18.2104 6.72654 17.4884 6.72654C16.7664 6.72654 16.1813 7.0359 15.7329 7.65459C15.2845 8.26601 15.0603 9.01209 15.0603 9.89283C15.0603 10.759 15.2883 11.5051 15.7443 12.1311ZM28.0768 12.6988C27.4537 13.4631 26.6405 13.8452 25.6373 13.8452C24.6342 13.8452 23.821 13.4668 23.1978 12.7097C22.5823 11.9455 22.2745 11.0065 22.2745 9.89283C22.2745 8.79373 22.5861 7.86204 23.2092 7.09776C23.84 6.32621 24.657 5.94043 25.6601 5.94043C26.6633 5.94043 27.4727 6.32257 28.0882 7.08684C28.7038 7.84384 29.0116 8.77917 29.0116 9.89283C29.0116 10.9919 28.7 11.9273 28.0768 12.6988ZM23.8932 12.1311C24.3492 12.7497 24.9381 13.0591 25.6601 13.0591C26.3822 13.0591 26.9635 12.7534 27.4043 12.142C27.8527 11.5233 28.0768 10.7736 28.0768 9.89283C28.0768 9.02665 27.8489 8.28421 27.3929 7.66551C26.9445 7.03953 26.3594 6.72654 25.6373 6.72654C24.9153 6.72654 24.3302 7.0359 23.8818 7.65459C23.4334 8.26601 23.2092 9.01209 23.2092 9.89283C23.2092 10.759 23.4372 11.5051 23.8932 12.1311Z" fill="white"/>
</svg>
