<svg width="78" height="17" viewBox="0 0 78 17" fill="none" xmlns="http://www.w3.org/2000/svg">
<path d="M16.7717 8.68037V1.24547C16.7637 0.618435 17.1784 0.203125 17.7925 0.203125C18.4066 0.203125 18.8133 0.618435 18.8133 1.24547L18.8053 8.41161C18.8053 11.9621 20.2568 13.4605 23.7818 13.4605L26.3497 13.4524C26.9638 13.4605 27.3706 13.8677 27.3706 14.4947C27.3706 15.1217 26.9638 15.5452 26.3497 15.5371H23.4867C19.1881 15.5452 16.7637 13.0696 16.7717 8.68037ZM51.3514 0.325275H52.835C57.1336 0.325275 59.5342 2.78456 59.542 7.18198V14.6331C59.5342 15.2602 59.1353 15.6673 58.5212 15.6673C57.9071 15.6673 57.4923 15.2602 57.5005 14.6331L57.4845 7.45885C57.4923 3.9002 56.0489 2.42626 52.532 2.42626H51.6548C48.1375 2.42626 46.6781 3.89206 46.6781 7.45885L46.6863 14.625C46.6781 15.2602 46.2792 15.6673 45.6655 15.6673C45.0515 15.6673 44.6366 15.2602 44.6444 14.625V7.18198C44.6366 2.78456 47.0532 0.325275 51.3514 0.325275ZM6.70713 0.325275H8.1905C12.2737 0.325275 14.8896 2.5484 14.8896 6.73407C14.8896 10.8872 12.2737 13.151 8.1905 13.1429H5.25566C4.63362 13.151 4.23487 12.7276 4.23487 12.1006C4.23487 11.4735 4.63362 11.0663 5.25566 11.0582L7.88747 11.0663C11.1891 11.0663 12.84 9.78783 12.84 6.73407C12.84 3.68033 11.1891 2.42626 7.88747 2.42626H7.0102C3.49319 2.42626 2.03376 3.89206 2.03376 7.45885L2.04173 14.625C2.03376 15.2602 1.635 15.6673 1.02092 15.6673C0.406842 15.6673 -0.00786201 15.2602 0.000113042 14.625V7.18198C-0.00786201 2.78456 2.40858 0.325275 6.70713 0.325275ZM68.2905 0.325275H69.774C74.0727 0.325275 76.4811 2.78456 76.4811 7.18198V10.7487C76.4729 11.3839 76.0744 11.8074 75.4603 11.8074C74.8462 11.8074 74.4314 11.3839 74.4396 10.7487L74.4236 7.4507C74.4314 3.89206 72.988 2.41811 69.4711 2.41811H68.5938C65.0766 2.41811 63.6172 3.87577 63.6172 7.4507V8.40346C63.6172 11.9703 65.0688 13.4524 68.5938 13.4524H74.2481C75.7075 13.4524 76.2179 13.8188 76.9992 14.6168L77.4698 15.0973C77.9802 15.6185 78.0282 16.2536 77.5895 16.6934C77.1509 17.1413 76.5528 17.1168 75.9625 16.5061L75.4443 15.9768C75.1889 15.7244 74.9577 15.5289 74.3199 15.5208H68.2827C63.9919 15.5289 61.5757 13.0615 61.5757 8.66407V7.17383C61.5835 2.78457 63.9919 0.325275 68.2905 0.325275ZM29.7391 7.45885V8.41161C29.7391 11.9784 31.1906 13.4605 34.7156 13.4605H35.5928C39.1098 13.4605 40.5454 11.9784 40.5454 8.41161V7.45885C40.5454 3.89206 39.1098 2.42626 35.5928 2.42626H34.7156C31.1986 2.42626 29.7391 3.88392 29.7391 7.45885ZM34.4125 0.325275H35.8959C40.1945 0.325275 42.6029 2.78456 42.6029 7.18198V8.67222C42.6029 13.0696 40.1945 15.5289 35.8959 15.5289H34.4125C30.114 15.5289 27.7055 13.0696 27.7055 8.67222V7.18198C27.7055 2.78456 30.1219 0.325275 34.4125 0.325275Z" fill="white"/>
</svg>
