<svg width="126" height="18" viewBox="0 0 126 18" fill="none" xmlns="http://www.w3.org/2000/svg">
<path fill-rule="evenodd" clip-rule="evenodd" d="M18.0856 9.08812V1.15792C18.0756 1.00955 18.0967 0.860756 18.1476 0.72074C18.1984 0.580723 18.2779 0.45247 18.3812 0.343921C18.4845 0.235373 18.6093 0.14884 18.7479 0.0896822C18.8865 0.0305241 19.036 0 19.1871 0C19.3382 0 19.4877 0.0305241 19.6263 0.0896822C19.7649 0.14884 19.8897 0.235373 19.993 0.343921C20.0963 0.45247 20.1758 0.580723 20.2266 0.72074C20.2775 0.860756 20.2986 1.00955 20.2886 1.15792V8.80473C20.2886 12.5833 21.8485 14.1986 25.6499 14.1986H28.4146C28.5639 14.1915 28.7131 14.2157 28.8522 14.2696C28.9914 14.3235 29.1173 14.4059 29.2217 14.5113C29.326 14.6166 29.4065 14.7426 29.4576 14.8809C29.5088 15.0191 29.5295 15.1665 29.5185 15.3133C29.5304 15.46 29.5102 15.6075 29.4593 15.7459C29.4084 15.8843 29.3279 16.0103 29.2233 16.1155C29.1187 16.2207 28.9923 16.3026 28.8528 16.3557C28.7133 16.4087 28.5639 16.4318 28.4146 16.4232H25.3187C20.6966 16.4279 18.0808 13.783 18.0856 9.09757V9.08812ZM55.3842 0.180225H56.9777C61.6094 0.180225 64.2061 2.81103 64.2109 7.50114V15.455C64.2208 15.6033 64.1997 15.7521 64.1489 15.8921C64.098 16.0322 64.0185 16.1604 63.9152 16.269C63.812 16.3775 63.6872 16.464 63.5486 16.5232C63.4099 16.5824 63.2604 16.6129 63.1093 16.6129C62.9582 16.6129 62.8087 16.5824 62.6701 16.5232C62.5315 16.464 62.4067 16.3775 62.3034 16.269C62.2002 16.1604 62.1206 16.0322 62.0698 15.8921C62.0189 15.7521 61.9978 15.6033 62.0078 15.455V7.79398C62.0078 4.01544 60.4623 2.42373 56.6657 2.42373H55.7058C51.9092 2.42373 50.3397 3.99182 50.3397 7.79398V15.4455C50.3397 15.7324 50.2239 16.0075 50.0177 16.2103C49.8116 16.4132 49.532 16.5271 49.2405 16.5271C48.949 16.5271 48.6695 16.4132 48.4633 16.2103C48.2572 16.0075 48.1414 15.7324 48.1414 15.4455V7.50114C48.1414 2.81103 50.7477 0.180225 55.3842 0.180225ZM7.2382 0.180225H8.83651C13.2378 0.180225 16.0601 2.54181 16.0601 7.0241C16.0601 11.5064 13.2378 13.8727 8.83651 13.8632H5.67349C5.52374 13.8719 5.37385 13.8488 5.23398 13.7954C5.09411 13.7421 4.96753 13.6597 4.86283 13.554C4.75813 13.4483 4.67776 13.3217 4.62716 13.1827C4.57656 13.0437 4.55691 12.8957 4.56956 12.7486C4.55844 12.602 4.57917 12.4549 4.63038 12.3168C4.6816 12.1788 4.76211 12.0531 4.86656 11.948C4.97101 11.843 5.097 11.7611 5.23614 11.7078C5.37528 11.6544 5.52437 11.6308 5.67349 11.6386H8.51013C12.0715 11.6386 13.8522 10.2784 13.8522 7.01465C13.8522 3.75094 12.0715 2.40484 8.51013 2.40484H7.55018C3.768 2.40484 2.20329 3.99182 2.19849 7.79398V15.4455C2.21237 15.5927 2.19401 15.7412 2.14466 15.8808C2.09531 16.0204 2.01612 16.1481 1.91241 16.255C1.80871 16.362 1.6829 16.4459 1.54348 16.5009C1.40405 16.556 1.25425 16.5811 1.10416 16.5744C0.953471 16.5826 0.802764 16.5586 0.662375 16.5041C0.521987 16.4496 0.395239 16.3659 0.290829 16.2586C0.186418 16.1514 0.106816 16.0232 0.057483 15.8829C0.00814988 15.7425 -0.00974632 15.5933 0.00502216 15.4455V7.50586C0.00502216 2.81103 2.60647 0.180225 7.2382 0.180225ZM73.6471 0.180225H75.2406C79.8772 0.180225 82.4786 2.80631 82.4786 7.50114V11.3127C82.4902 11.4605 82.4699 11.609 82.4192 11.7485C82.3685 11.888 82.2884 12.0154 82.1842 12.1224C82.08 12.2294 81.954 12.3135 81.8146 12.3694C81.6751 12.4252 81.5252 12.4514 81.3747 12.4463C81.2239 12.453 81.0735 12.4278 80.9335 12.3725C80.7935 12.3172 80.6672 12.233 80.563 12.1256C80.4589 12.0182 80.3793 11.89 80.3297 11.7498C80.2801 11.6096 80.2617 11.4606 80.2755 11.3127V7.79398C80.2755 4.01544 78.73 2.42373 74.9334 2.42373H73.9735C70.1769 2.42373 68.6074 3.98238 68.6074 7.79398V8.80473C68.6074 12.6163 70.1721 14.1986 73.9735 14.1986H80.0739C81.6482 14.1986 82.1954 14.5906 83.0402 15.4455L83.5489 15.9603C84.1009 16.5177 84.1489 17.1884 83.6785 17.6654C83.2082 18.1424 82.565 18.1377 81.9266 17.467L81.3699 16.905C81.2201 16.7383 81.0325 16.6087 80.8224 16.5267C80.6123 16.4446 80.3855 16.4124 80.1603 16.4327H73.6519C69.025 16.4327 66.4139 13.8113 66.4139 9.11646V7.50114C66.4139 2.80631 69.0154 0.180225 73.6471 0.180225ZM32.0767 7.79398V8.80946C32.0767 12.6163 33.6463 14.2128 37.4428 14.2128H38.4028C42.1994 14.2128 43.7401 12.6305 43.7401 8.82363V7.79398C43.7257 3.98238 42.185 2.40484 38.4028 2.40484H37.4428C33.6463 2.40484 32.0767 3.98238 32.0767 7.79398ZM37.1164 0.180225H38.71C43.3465 0.180225 45.9479 2.80631 45.9479 7.50114V9.09757C45.9479 13.7924 43.3465 16.4138 38.71 16.4138H37.1164C32.4847 16.4138 29.8833 13.7924 29.8833 9.09757V7.50114C29.8833 2.80631 32.4847 0.180225 37.1164 0.180225Z" fill="black"/>
<rect x="90.5" y="0.5" width="35" height="17" rx="5.5" stroke="black"/>
<path d="M99.854 13C98.7961 13 97.8448 12.5912 97 11.7735L97.5936 11.1436C98.3471 11.8508 99.1043 12.2044 99.8654 12.2044C100.436 12.2044 100.9 12.0424 101.258 11.7182C101.616 11.3941 101.795 10.9779 101.795 10.4696C101.795 9.99079 101.608 9.60037 101.235 9.29834C100.87 8.99632 100.394 8.8453 99.8083 8.8453C99.2603 8.8453 98.701 8.99263 98.1302 9.28729L97.5251 8.90055L97.7534 5.1326H102.354V5.93923H98.5411L98.3699 8.41436C98.9102 8.186 99.4354 8.07182 99.9453 8.07182C100.744 8.07182 101.403 8.28913 101.92 8.72376C102.445 9.15101 102.708 9.72928 102.708 10.4586C102.708 11.2099 102.442 11.8214 101.909 12.2928C101.376 12.7643 100.691 13 99.854 13Z" fill="black"/>
<path d="M109.903 11.8398C109.279 12.6133 108.465 13 107.46 13C106.456 13 105.641 12.6169 105.017 11.8508C104.401 11.0773 104.093 10.1271 104.093 9C104.093 7.88766 104.405 6.94475 105.029 6.17127C105.66 5.39042 106.479 5 107.483 5C108.488 5 109.298 5.38674 109.915 6.16022C110.531 6.92633 110.839 7.87293 110.839 9C110.839 10.1123 110.527 11.0589 109.903 11.8398ZM105.714 11.2652C106.17 11.8913 106.76 12.2044 107.483 12.2044C108.206 12.2044 108.788 11.895 109.23 11.2762C109.679 10.6501 109.903 9.89134 109.903 9C109.903 8.12339 109.675 7.37201 109.218 6.74586C108.769 6.11234 108.183 5.79558 107.46 5.79558C106.737 5.79558 106.151 6.10866 105.702 6.73481C105.253 7.35359 105.029 8.10866 105.029 9C105.029 9.87661 105.257 10.6317 105.714 11.2652Z" fill="black"/>
<path d="M118.064 11.8398C117.44 12.6133 116.626 13 115.621 13C114.616 13 113.802 12.6169 113.178 11.8508C112.561 11.0773 112.253 10.1271 112.253 9C112.253 7.88766 112.565 6.94475 113.189 6.17127C113.821 5.39042 114.639 5 115.644 5C116.648 5 117.459 5.38674 118.075 6.16022C118.692 6.92633 119 7.87293 119 9C119 10.1123 118.688 11.0589 118.064 11.8398ZM113.874 11.2652C114.331 11.8913 114.921 12.2044 115.644 12.2044C116.367 12.2044 116.949 11.895 117.39 11.2762C117.839 10.6501 118.064 9.89134 118.064 9C118.064 8.12339 117.836 7.37201 117.379 6.74586C116.93 6.11234 116.344 5.79558 115.621 5.79558C114.898 5.79558 114.312 6.10866 113.863 6.73481C113.414 7.35359 113.189 8.10866 113.189 9C113.189 9.87661 113.418 10.6317 113.874 11.2652Z" fill="black"/>
</svg>
