<svg width="120" height="26" viewBox="0 0 120 26" fill="none" xmlns="http://www.w3.org/2000/svg">
<path d="M18.2349 14.0142V5.91036C18.2349 5.23503 18.7455 4.72852 19.256 4.72852C19.7665 4.72852 20.277 5.23503 20.277 5.91036V13.6766C20.277 17.5597 21.8085 19.0792 25.7225 19.0792H28.4452C29.1259 19.0792 29.4663 19.5857 29.4663 20.261C29.4663 20.9363 28.9557 21.4428 28.4452 21.4428H25.3822C20.7875 21.4428 18.2349 18.7415 18.2349 14.0142ZM55.5024 4.89736H57.034C61.6286 4.89736 64.3514 7.59865 64.3514 12.3259V20.4298C64.3514 21.1051 63.8408 21.6116 63.3303 21.6116C62.6496 21.6116 62.1391 21.1051 62.3093 20.4298V12.6636C62.3093 8.78049 60.7778 7.26098 57.034 7.26098H56.013C52.2692 7.26098 50.5675 8.78049 50.5675 12.6636V20.4298C50.5675 21.1051 50.057 21.6116 49.5464 21.6116C48.8658 21.6116 48.3553 21.1051 48.5255 20.4298V12.3259C48.3553 7.59865 50.9078 4.89736 55.5024 4.89736ZM7.34399 4.89736H8.87553C13.3 4.89736 16.1929 7.26101 16.1929 11.8195C16.1929 16.3779 13.3 18.7415 8.87553 18.7415H5.64228C4.9616 18.7415 4.62124 18.235 4.62124 17.5597C4.62124 16.8844 5.13177 16.3779 5.64228 16.3779H8.53521C12.1088 16.3779 13.8105 15.0272 13.8105 11.6506C13.8105 8.27398 12.1088 6.9233 8.53521 6.9233H7.51418C3.77041 6.9233 2.06868 8.4428 2.06868 12.3259V20.0922C2.06868 20.7675 1.55815 21.274 1.04764 21.274C0.537125 21.274 -0.143518 20.7675 0.0266528 20.0922V11.9882C0.0266528 7.59863 2.74937 4.89736 7.34399 4.89736ZM73.881 4.89736H75.4125C80.0071 4.89736 82.7298 7.59865 82.7298 12.3259V16.209C82.7298 16.8843 82.2194 17.3909 81.7088 17.3909C81.0282 17.3909 80.5176 16.8843 80.6878 16.209V12.6636C80.6878 8.78049 79.1562 7.26098 75.4125 7.26098H74.3914C70.6477 7.26098 68.946 8.78049 68.946 12.6636V13.6766C68.946 17.5597 70.4775 19.0792 74.3914 19.0792H80.5176C82.0492 19.0792 82.5597 19.4168 83.4106 20.4298L83.9211 20.9363C84.4316 21.4428 84.6017 22.1181 84.0912 22.6246C83.5807 23.1311 82.9 23.1311 82.3895 22.4558L81.879 21.9493C81.5386 21.6117 81.3685 21.4428 80.6878 21.4428H74.2213C69.6266 21.4428 66.9039 18.7415 66.9039 14.0142V12.3259C66.5636 7.59865 69.1162 4.89736 73.881 4.89736ZM32.189 12.6636V13.6766C32.189 17.5597 33.7205 19.0792 37.6345 19.0792H38.6555C42.3993 19.0792 43.9308 17.3908 43.9308 13.6766V12.6636C43.9308 8.78049 42.3993 7.26098 38.6555 7.26098H37.6345C33.7205 7.26098 32.189 8.78049 32.189 12.6636ZM37.2941 4.89736H38.8257C43.4203 4.89736 46.143 7.59865 46.143 12.3259V14.0142C46.143 18.7415 43.5905 21.4428 38.8257 21.4428H37.2941C32.6995 21.4428 29.9767 18.7415 29.9767 14.0142V12.3259C29.9767 7.59865 32.5293 4.89736 37.2941 4.89736Z" fill="black"/>
<path d="M112.513 18.4021H109.791L107.238 14.3502L104.685 18.4021H102.133L105.877 12.9995L102.303 7.93457H105.026L107.408 11.8177L109.791 7.93457H112.343L108.77 13.1684L112.513 18.4021Z" fill="black"/>
<path fill-rule="evenodd" clip-rule="evenodd" d="M111.15 2.02594H102.982C99.238 2.02594 96.0047 5.06492 96.0047 8.94804V17.0519C96.0047 20.935 99.0679 23.974 102.982 23.974H111.15C114.894 23.974 118.127 20.935 118.127 17.0519V8.94804C117.957 5.23375 114.894 2.02594 111.15 2.02594ZM102.982 0C98.0468 0 94.1328 4.05193 94.1328 8.94804V17.0519C94.1328 21.948 98.0468 26 102.982 26H111.15C116.085 26 119.999 21.948 119.999 17.0519V8.94804C119.999 4.05193 116.085 0 111.15 0H102.982Z" fill="black"/>
</svg>
