<svg width="121" height="26" viewBox="0 0 121 26" fill="none" xmlns="http://www.w3.org/2000/svg">
<path fill-rule="evenodd" clip-rule="evenodd" d="M112.043 2.03185H103.905C102.07 2.03185 100.31 2.75913 99.0124 4.05382C97.7144 5.34852 96.9846 7.10468 96.9833 8.9363V17.0589C96.9833 18.8913 97.7126 20.6487 99.0107 21.9445C100.309 23.2402 102.069 23.9681 103.905 23.9681H112.043C112.952 23.9688 113.852 23.7905 114.692 23.4435C115.532 23.0965 116.296 22.5876 116.938 21.9459C117.581 21.3042 118.091 20.5423 118.439 19.7037C118.786 18.8651 118.965 17.9664 118.964 17.0589V8.9363C118.964 8.02919 118.785 7.13097 118.437 6.29297C118.09 5.45497 117.58 4.69361 116.937 4.05241C116.294 3.41121 115.531 2.90274 114.691 2.55604C113.851 2.20934 112.951 2.03122 112.043 2.03185ZM103.905 0C101.531 0 99.2537 0.9415 97.5748 2.61738C95.8958 4.29326 94.9526 6.56624 94.9526 8.9363V17.0589C94.952 18.2328 95.1831 19.3954 95.6327 20.4801C96.0823 21.5649 96.7417 22.5506 97.5731 23.3809C98.4044 24.2112 99.3916 24.8699 100.478 25.3193C101.565 25.7687 102.729 26 103.905 26H112.043C114.418 26 116.697 25.058 118.376 23.3812C120.056 21.7044 121 19.4302 121 17.0589V8.9363C120.999 6.5658 120.054 4.29283 118.375 2.61709C116.695 0.941346 114.417 -3.43705e-07 112.043 0H103.905ZM113.359 18.2963H110.605L107.967 14.2904L105.323 18.2963H102.748L106.52 12.8363L102.984 7.7037H105.642L108.092 11.517L110.504 7.7037H113.099L109.534 12.9567L113.359 18.2963ZM18.1755 13V4.91593C18.1655 4.76468 18.1867 4.613 18.2378 4.47026C18.2889 4.32753 18.3688 4.19679 18.4726 4.08613C18.5764 3.97548 18.7018 3.88727 18.8411 3.82696C18.9804 3.76665 19.1307 3.73554 19.2825 3.73554C19.4344 3.73554 19.5846 3.76665 19.7239 3.82696C19.8632 3.88727 19.9887 3.97548 20.0924 4.08613C20.1962 4.19679 20.2761 4.32753 20.3272 4.47026C20.3783 4.613 20.3995 4.76468 20.3895 4.91593V12.7111C20.3895 16.563 21.9572 18.2096 25.7775 18.2096H28.5559C28.706 18.2024 28.8559 18.2271 28.9957 18.282C29.1356 18.337 29.2621 18.4209 29.367 18.5284C29.4719 18.6358 29.5527 18.7642 29.6041 18.9052C29.6556 19.0461 29.6764 19.1963 29.6653 19.3459C29.6773 19.4955 29.657 19.6459 29.6058 19.787C29.5546 19.928 29.4738 20.0565 29.3686 20.1637C29.2635 20.271 29.1365 20.3544 28.9963 20.4086C28.8561 20.4627 28.7059 20.4861 28.5559 20.4774H25.4447C20.7995 20.4822 18.1707 17.7859 18.1755 13.0096V13ZM55.6596 3.91926H57.2611C61.9158 3.91926 64.5254 6.60111 64.5302 11.3822V19.4904C64.5402 19.6416 64.519 19.7933 64.4679 19.936C64.4168 20.0788 64.3369 20.2095 64.2331 20.3202C64.1294 20.4308 64.0039 20.519 63.8646 20.5793C63.7253 20.6396 63.5751 20.6708 63.4232 20.6708C63.2714 20.6708 63.1211 20.6396 62.9818 20.5793C62.8425 20.519 62.7171 20.4308 62.6133 20.3202C62.5095 20.2095 62.4296 20.0788 62.3785 19.936C62.3274 19.7933 62.3062 19.6416 62.3162 19.4904V11.6807C62.3162 7.82889 60.763 6.2063 56.9475 6.2063H55.9828C52.1674 6.2063 50.59 7.80482 50.59 11.6807V19.4807C50.59 19.7732 50.4737 20.0536 50.2665 20.2604C50.0594 20.4672 49.7784 20.5833 49.4854 20.5833C49.1925 20.5833 48.9115 20.4672 48.7044 20.2604C48.4972 20.0536 48.3808 19.7732 48.3808 19.4807V11.3822C48.3808 6.60111 51 3.91926 55.6596 3.91926ZM7.2742 3.91926H8.88045C13.3037 3.91926 16.14 6.32667 16.14 10.8959C16.14 15.4652 13.3037 17.8774 8.88045 17.8678H5.70171C5.55121 17.8766 5.40057 17.853 5.26001 17.7986C5.11944 17.7442 4.99224 17.6603 4.88702 17.5525C4.7818 17.4448 4.70102 17.3157 4.65017 17.174C4.59932 17.0324 4.57958 16.8814 4.59228 16.7315C4.58111 16.5821 4.60195 16.4321 4.65341 16.2913C4.70488 16.1506 4.78579 16.0225 4.89076 15.9154C4.99573 15.8084 5.12235 15.7249 5.26218 15.6705C5.40201 15.6161 5.55185 15.5921 5.70171 15.6H8.55245C12.1316 15.6 13.9211 14.2133 13.9211 10.8863C13.9211 7.55926 12.1316 6.18704 8.55245 6.18704H7.58773C3.78674 6.18704 2.21425 7.80482 2.20943 11.6807V19.4807C2.22337 19.6308 2.20493 19.7821 2.15533 19.9245C2.10574 20.0668 2.02614 20.1969 1.92192 20.306C1.8177 20.415 1.69127 20.5005 1.55115 20.5567C1.41103 20.6128 1.26048 20.6383 1.10965 20.6315C0.958213 20.6398 0.806757 20.6154 0.66567 20.5599C0.524583 20.5043 0.397205 20.4189 0.292275 20.3096C0.187346 20.2003 0.107347 20.0696 0.0577689 19.9266C0.00819042 19.7835 -0.00979479 19.6314 0.00504714 19.4807V11.387C0.00504714 6.60111 2.61943 3.91926 7.2742 3.91926ZM74.0134 3.91926H75.6148C80.2744 3.91926 82.8888 6.5963 82.8888 11.3822V15.2678C82.9004 15.4184 82.8801 15.5698 82.8291 15.712C82.7781 15.8542 82.6976 15.9841 82.5929 16.0932C82.4882 16.2022 82.3616 16.288 82.2215 16.3449C82.0813 16.4018 81.9306 16.4285 81.7794 16.4233C81.6279 16.4302 81.4767 16.4045 81.336 16.3481C81.1953 16.2917 81.0684 16.2059 80.9637 16.0964C80.859 15.9869 80.7791 15.8563 80.7293 15.7133C80.6794 15.5704 80.6608 15.4185 80.6748 15.2678V11.6807C80.6748 7.82889 79.1216 6.2063 75.3061 6.2063H74.3414C70.5259 6.2063 68.9486 7.79519 68.9486 11.6807V12.7111C68.9486 16.5967 70.5211 18.2096 74.3414 18.2096H80.4722C82.0543 18.2096 82.6042 18.6093 83.4532 19.4807L83.9645 20.0056C84.5192 20.5737 84.5674 21.2574 84.0947 21.7437C83.622 22.23 82.9756 22.2252 82.3341 21.5415L81.7746 20.9685C81.624 20.7987 81.4356 20.6665 81.2244 20.5829C81.0132 20.4993 80.7853 20.4664 80.559 20.487H74.0182C69.3683 20.487 66.7443 17.8148 66.7443 13.0289V11.3822C66.7443 6.5963 69.3586 3.91926 74.0134 3.91926ZM32.2363 11.6807V12.7159C32.2363 16.5967 33.8136 18.2241 37.6291 18.2241H38.5938C42.4092 18.2241 43.9576 16.6111 43.9576 12.7304V11.6807C43.9431 7.79519 42.3948 6.18704 38.5938 6.18704H37.6291C33.8136 6.18704 32.2363 7.79519 32.2363 11.6807ZM37.301 3.91926H38.9025C43.5621 3.91926 46.1765 6.5963 46.1765 11.3822V13.0096C46.1765 17.7956 43.5621 20.4678 38.9025 20.4678H37.301C32.6463 20.4678 30.0319 17.7956 30.0319 13.0096V11.3822C30.0319 6.5963 32.6463 3.91926 37.301 3.91926Z" fill="black"/>
</svg>
